<svg width="512" height="512" viewBox="0 0 512 512" xmlns="http://www.w3.org/2000/svg">
  <!-- Background circle -->
  <circle cx="256" cy="256" r="236" fill="#2563eb" stroke="#1e40af" stroke-width="20"/>
  
  <!-- Clock face -->
  <circle cx="256" cy="256" r="192" fill="#ffffff" stroke="#e5e7eb" stroke-width="6"/>
  
  <!-- Hour markers -->
  <g stroke="#374151" stroke-width="8">
    <!-- 12 o'clock -->
    <line x1="256" y1="84" x2="256" y2="112"/>
    <!-- 3 o'clock -->
    <line x1="428" y1="256" x2="400" y2="256"/>
    <!-- 6 o'clock -->
    <line x1="256" y1="428" x2="256" y2="400"/>
    <!-- 9 o'clock -->
    <line x1="84" y1="256" x2="112" y2="256"/>
  </g>
  
  <!-- Minute markers -->
  <g stroke="#9ca3af" stroke-width="4">
    <!-- 1 o'clock -->
    <line x1="337.4" y1="103.6" x2="326.7" y2="114.3"/>
    <!-- 2 o'clock -->
    <line x1="408.4" y1="185.6" x2="397.7" y2="196.3"/>
    <!-- 4 o'clock -->
    <line x1="408.4" y1="326.4" x2="397.7" y2="315.7"/>
    <!-- 5 o'clock -->
    <line x1="337.4" y1="408.4" x2="326.7" y2="397.7"/>
    <!-- 7 o'clock -->
    <line x1="174.6" y1="408.4" x2="185.3" y2="397.7"/>
    <!-- 8 o'clock -->
    <line x1="103.6" y1="326.4" x2="114.3" y2="315.7"/>
    <!-- 10 o'clock -->
    <line x1="103.6" y1="185.6" x2="114.3" y2="196.3"/>
    <!-- 11 o'clock -->
    <line x1="174.6" y1="103.6" x2="185.3" y2="114.3"/>
  </g>
  
  <!-- Hour hand (pointing to 3) -->
  <line x1="256" y1="256" x2="336" y2="256" stroke="#1f2937" stroke-width="16" stroke-linecap="round"/>
  
  <!-- Minute hand (pointing to 12) -->
  <line x1="256" y1="256" x2="256" y2="128" stroke="#374151" stroke-width="10" stroke-linecap="round"/>
  
  <!-- Center dot -->
  <circle cx="256" cy="256" r="16" fill="#1f2937"/>
</svg>